<svg width="56" height="56" viewBox="0 0 56 56" fill="none" xmlns="http://www.w3.org/2000/svg">
<path d="M38.0625 26.25H29.75V17.9375C29.75 17.6969 29.5531 17.5 29.3125 17.5H26.6875C26.4469 17.5 26.25 17.6969 26.25 17.9375V26.25H17.9375C17.6969 26.25 17.5 26.4469 17.5 26.6875V29.3125C17.5 29.5531 17.6969 29.75 17.9375 29.75H26.25V38.0625C26.25 38.3031 26.4469 38.5 26.6875 38.5H29.3125C29.5531 38.5 29.75 38.3031 29.75 38.0625V29.75H38.0625C38.3031 29.75 38.5 29.5531 38.5 29.3125V26.6875C38.5 26.4469 38.3031 26.25 38.0625 26.25Z" fill="#BD7048"/>
<path d="M28 3.5C14.4703 3.5 3.5 14.4703 3.5 28C3.5 41.5297 14.4703 52.5 28 52.5C41.5297 52.5 52.5 41.5297 52.5 28C52.5 14.4703 41.5297 3.5 28 3.5ZM28 48.3438C16.7672 48.3438 7.65625 39.2328 7.65625 28C7.65625 16.7672 16.7672 7.65625 28 7.65625C39.2328 7.65625 48.3438 16.7672 48.3438 28C48.3438 39.2328 39.2328 48.3438 28 48.3438Z" fill="#BD7048"/>
</svg>
